<svg xmlns="http://www.w3.org/2000/svg" width="216" height="146"><path d="M162.178 43.122c-5.595-9.587-13.185-17.177-22.771-22.772-9.588-5.595-20.055-8.392-31.408-8.392-11.352 0-21.822 2.798-31.408 8.392-9.587 5.595-17.177 13.185-22.772 22.772-5.595 9.587-8.392 20.056-8.392 31.407 0 13.634 3.978 25.895 11.936 36.785 7.957 10.89 18.236 18.426 30.837 22.608 1.467.272 2.553.081 3.259-.569.706-.652 1.059-1.467 1.059-2.444 0-.163-.014-1.629-.041-4.399a726.433 726.433 0 0 1-.041-7.25l-1.874.324c-1.195.219-2.702.312-4.522.285a34.45 34.45 0 0 1-5.662-.57c-1.956-.352-3.775-1.166-5.459-2.442-1.683-1.277-2.878-2.948-3.584-5.011l-.815-1.875c-.543-1.248-1.398-2.634-2.566-4.154-1.168-1.521-2.349-2.553-3.544-3.096l-.57-.407a5.999 5.999 0 0 1-1.059-.979c-.326-.38-.57-.76-.733-1.141-.163-.38-.028-.693.407-.938s1.222-.365 2.363-.365l1.629.244c1.086.217 2.43.868 4.033 1.955 1.602 1.086 2.919 2.498 3.951 4.235 1.25 2.228 2.756 3.925 4.522 5.093 1.765 1.168 3.544 1.751 5.336 1.751s3.34-.136 4.644-.407a16.15 16.15 0 0 0 3.666-1.222c.489-3.64 1.82-6.437 3.992-8.392-3.096-.326-5.879-.816-8.351-1.467-2.471-.652-5.024-1.711-7.658-3.179-2.635-1.466-4.821-3.286-6.559-5.458-1.738-2.173-3.164-5.025-4.277-8.555-1.113-3.531-1.67-7.604-1.67-12.221 0-6.573 2.146-12.167 6.437-16.784-2.01-4.942-1.82-10.482.57-16.62 1.575-.489 3.911-.122 7.007 1.1 3.096 1.222 5.363 2.269 6.803 3.137s2.594 1.603 3.463 2.2c5.052-1.412 10.266-2.118 15.643-2.118s10.592.706 15.645 2.118l3.096-1.955c2.117-1.304 4.617-2.499 7.494-3.585 2.879-1.086 5.08-1.385 6.601-.896 2.444 6.138 2.661 11.678.651 16.62 4.291 4.617 6.437 10.212 6.437 16.784 0 4.617-.558 8.703-1.67 12.261-1.114 3.559-2.552 6.409-4.317 8.555-1.766 2.146-3.966 3.952-6.6 5.418-2.635 1.467-5.188 2.526-7.659 3.178-2.472.652-5.255 1.142-8.351 1.468 2.824 2.444 4.236 6.3 4.236 11.569v17.189c0 .977.34 1.792 1.019 2.443s1.751.842 3.218.57c12.602-4.182 22.881-11.718 30.838-22.609 7.957-10.889 11.936-23.15 11.936-36.785-.003-11.349-2.802-21.817-8.395-31.404z"/></svg>