<svg width="400" height="128" xmlns="http://www.w3.org/2000/svg" xmlns:xlink="http://www.w3.org/1999/xlink" style="background:#fff"><defs><path id="a" d="M33.675 39.81V.504H.322V39.81z"/><path id="c" d="M0 65h336.315V0H0z"/></defs><g fill="none" fill-rule="evenodd"><path d="M148.35 49.328l-9.2 24.653h18.402l-9.201-24.653zm15.489 42.56l-3.757-9.922H136.62l-3.757 9.923h-10.198l20.088-51.708h11.195l20.088 51.708H163.84z" fill="#31B67B"/><g transform="translate(32 35)"><path d="M173.472 46.647V31.763c-1.84-2.79-5.75-5.039-9.584-5.039-6.364 0-10.428 5.195-10.428 12.482 0 7.21 4.064 12.403 10.428 12.403 3.834 0 7.744-2.17 9.584-4.962zm0 11.242v-5.117c-2.837 3.721-7.13 6.047-11.884 6.047-9.508 0-16.485-7.287-16.485-19.613 0-12.094 6.9-19.691 16.485-19.691 4.6 0 8.894 2.17 11.884 6.124V6.18h8.05v51.71h-8.05zm70.048 0v-22.56h-26.605v22.56h-8.971V6.18h8.97v21.164h26.606V6.18h8.972v51.708zm45.257-18.761c0-6.59-3.834-12.403-10.734-12.403-6.824 0-10.658 5.814-10.658 12.403 0 6.667 3.834 12.48 10.658 12.48 6.9 0 10.734-5.813 10.734-12.48m-29.75 0c0-10.699 7.285-19.613 19.016-19.613 11.884 0 19.092 8.914 19.092 19.613 0 10.775-7.208 19.69-19.092 19.69-11.731 0-19.015-8.915-19.015-19.69" fill="#31B67B"/><g transform="translate(302.64 19.01)"><mask id="b" fill="#fff"><use xlink:href="#a"/></mask><path d="M.322 20.119C.322 8.8 8.22.505 19.492.505c7.207 0 11.576 3.101 14.184 6.668l-5.291 4.961c-2.07-2.946-4.907-4.419-8.51-4.419-6.748 0-11.195 5.116-11.195 12.404 0 7.287 4.447 12.48 11.194 12.48 3.604 0 6.44-1.55 8.51-4.418l5.292 4.961c-2.608 3.566-6.977 6.667-14.185 6.667C8.22 39.81.322 31.514.322 20.12" fill="#31B67B" mask="url(#b)"/></g><mask id="d" fill="#fff"><use xlink:href="#c"/></mask><path fill="#31B67B" mask="url(#d)" d="M48.516 15.946h15.772V0H48.516z"/><path fill="#31B67B" mask="url(#d)" d="M48.516 42.215H38.307V26.27H22.536V15.947h15.771V0H0v65h64.288V26.27H48.516z"/></g></g></svg>