<svg width="400" height="128" xmlns="http://www.w3.org/2000/svg" xmlns:xlink="http://www.w3.org/1999/xlink"><defs><path id="a" d="M0 65h338.023V0H0z"/></defs><g transform="translate(32 32)" fill="none" fill-rule="evenodd"><path d="M323.767 19.515c7.244 0 11.636 3.1 14.257 6.667l-5.318 4.962c-2.08-2.947-4.932-4.42-8.554-4.42-6.782 0-11.251 5.117-11.251 12.404s4.469 12.48 11.251 12.48c3.622 0 6.473-1.55 8.554-4.418l5.318 4.961c-2.621 3.567-7.013 6.668-14.257 6.668-11.329 0-19.266-8.296-19.266-19.69 0-11.319 7.937-19.614 19.266-19.614zm-33.524 19.613c0-6.59-3.853-12.403-10.788-12.403-6.859 0-10.712 5.814-10.712 12.403 0 6.667 3.853 12.48 10.712 12.48 6.935 0 10.788-5.813 10.788-12.48m-29.9 0c0-10.699 7.321-19.613 19.112-19.613 11.945 0 19.189 8.914 19.189 19.613 0 10.775-7.244 19.69-19.189 19.69-11.79 0-19.112-8.915-19.112-19.69m-15.586 18.761v-22.56h-26.74v22.56H209V6.18h9.016v21.164h26.741V6.18h9.017v51.708zm-70.404-11.242V31.763c-1.85-2.79-5.779-5.039-9.633-5.039-6.396 0-10.48 5.195-10.48 12.482 0 7.21 4.084 12.403 10.48 12.403 3.854 0 7.783-2.17 9.633-4.962zm0 11.242v-5.117c-2.851 3.721-7.166 6.047-11.944 6.047-9.557 0-16.57-7.287-16.57-19.613 0-12.094 6.937-19.691 16.57-19.691 4.623 0 8.939 2.17 11.944 6.124V6.18h8.092v51.71h-8.092zm-57.411-42.561l-9.248 24.653h18.496l-9.248-24.653zm15.566 42.56l-3.776-9.922h-23.58l-3.777 9.923h-10.25l20.19-51.708h11.252l20.19 51.708h-10.249z" fill="#000"/><mask id="b" fill="#fff"><use xlink:href="#a"/></mask><path fill="#000" mask="url(#b)" d="M48.763 15.946h15.852V0H48.763z"/><path fill="#000" mask="url(#b)" d="M48.763 42.215H38.502V26.27H22.65V15.947h15.852V0H0v65h64.615V26.27H48.763z"/></g></svg>