<?xml version="1.0" encoding="UTF-8"?>
<svg width="298px" height="107px" viewBox="0 0 298 107" version="1.1" xmlns="http://www.w3.org/2000/svg" xmlns:xlink="http://www.w3.org/1999/xlink" style="background: #31B67B;">
    <!-- Generator: Sketch 44.1 (41455) - http://www.bohemiancoding.com/sketch -->
    <title>white on green</title>
    <desc>Created with Sketch.</desc>
    <defs>
        <polygon id="path-1" points="23.513066 27.5603349 23.513066 0.349768868 0.225073293 0.349768868 0.225073293 27.5603349"></polygon>
        <polygon id="path-3" points="0 45 234.823646 45 234.823646 0 0 0"></polygon>
    </defs>
    <g id="Logos" stroke="none" stroke-width="1" fill="none" fill-rule="evenodd">
        <g id="white-on-green">
            <g id="Page-1" transform="translate(31.000000, 31.000000)">
                <path d="M81.2390089,10.6120189 L74.8145744,27.6789057 L87.6634433,27.6789057 L81.2390089,10.6120189 Z M92.0531136,40.0768302 L89.4297288,33.2071132 L73.0482889,33.2071132 L70.4249041,40.0768302 L63.3047115,40.0768302 L77.3308218,4.27933019 L85.1471959,4.27933019 L99.1733062,40.0768302 L92.0531136,40.0768302 Z" id="Fill-1" fill="#FEFEFE"></path>
                <g id="Group-14">
                    <path d="M121.122674,32.2943774 L121.122674,21.9898019 C119.837448,20.0577736 117.107773,18.5014528 114.430608,18.5014528 C109.987157,18.5014528 107.149921,22.0976321 107.149921,27.1423019 C107.149921,32.1339057 109.987157,35.7292358 114.430608,35.7292358 C117.107773,35.7292358 119.837448,34.2264057 121.122674,32.2943774 Z M121.122674,40.0768302 L121.122674,36.534566 C119.14169,39.1106038 116.14396,40.7208396 112.824817,40.7208396 C106.186107,40.7208396 101.31453,35.6757453 101.31453,27.1423019 C101.31453,18.7697547 106.13275,13.5102736 112.824817,13.5102736 C116.036822,13.5102736 119.034553,15.0131038 121.122674,17.7500377 L121.122674,4.27933019 L126.743789,4.27933019 L126.743789,40.0768302 L121.122674,40.0768302 Z" id="Fill-2" fill="#FEFEFE"></path>
                    <polygon id="Fill-4" fill="#FEFEFE" points="170.031969 40.0766604 170.031969 24.4586887 151.45527 24.4586887 151.45527 40.0766604 145.19133 40.0766604 145.19133 4.27916038 151.45527 4.27916038 151.45527 18.9309057 170.031969 18.9309057 170.031969 4.27916038 176.295909 4.27916038 176.295909 40.0766604"></polygon>
                    <path d="M201.631116,27.088684 C201.631116,22.5267028 198.954374,18.50175 194.136577,18.50175 C189.371714,18.50175 186.694549,22.5267028 186.694549,27.088684 C186.694549,31.7041557 189.371714,35.7291085 194.136577,35.7291085 C198.954374,35.7291085 201.631116,31.7041557 201.631116,27.088684 M180.859582,27.088684 C180.859582,19.6819387 185.945434,13.5101462 194.136577,13.5101462 C202.434435,13.5101462 207.466929,19.6819387 207.466929,27.088684 C207.466929,34.5484953 202.434435,40.7207123 194.136577,40.7207123 C185.945434,40.7207123 180.859582,34.5484953 180.859582,27.088684" id="Fill-6" fill="#FEFEFE"></path>
                    <g id="Group-10" transform="translate(211.310580, 13.160377)">
                        <mask id="mask-2" fill="white">
                            <use xlink:href="#path-1"></use>
                        </mask>
                        <g id="Clip-9"></g>
                        <path d="M0.225073293,13.9283066 C0.225073293,6.09278774 5.73905137,0.349768868 13.6092059,0.349768868 C18.6417008,0.349768868 21.6927884,2.49660849 23.5132778,4.96566509 L19.8189421,8.40052358 C18.3736455,6.36066509 16.3926617,5.34137264 13.8768378,5.34137264 C9.16533174,5.34137264 6.06046366,8.88321226 6.06046366,13.9283066 C6.06046366,18.9734009 9.16533174,22.5687311 13.8768378,22.5687311 C16.3926617,22.5687311 18.3736455,21.4955236 19.8189421,19.5095802 L23.5132778,22.9444387 C21.6927884,25.4134953 18.6417008,27.5603349 13.6092059,27.5603349 C5.73905137,27.5603349 0.225073293,21.817316 0.225073293,13.9283066" id="Fill-8" fill="#FEFEFE" mask="url(#mask-2)"></path>
                    </g>
                    <mask id="mask-4" fill="white">
                        <use xlink:href="#path-3"></use>
                    </mask>
                    <g id="Clip-12"></g>
                    <polygon id="Fill-11" fill="#FEFEFE" mask="url(#mask-4)" points="33.8753304 11.0398585 44.8876182 11.0398585 44.8876182 0 33.8753304 0"></polygon>
                    <polygon id="Fill-13" fill="#FEFEFE" mask="url(#mask-4)" points="33.8753727 29.2258443 26.7471342 29.2258443 26.7471342 18.1859858 15.7348464 18.1859858 15.7348464 11.0399009 26.7471342 11.0399009 26.7471342 4.24528302e-05 4.23468097e-05 4.24528302e-05 4.23468097e-05 45.0000425 44.8876605 45.0000425 44.8876605 18.1859858 33.8753727 18.1859858"></polygon>
                </g>
            </g>
        </g>
    </g>
</svg>