<?xml version="1.0" encoding="UTF-8"?>
<svg width="298px" height="107px" viewBox="0 0 298 107" version="1.1" xmlns="http://www.w3.org/2000/svg" xmlns:xlink="http://www.w3.org/1999/xlink">
    <!-- Generator: Sketch 44.1 (41455) - http://www.bohemiancoding.com/sketch -->
    <title>green on white</title>
    <desc>Created with Sketch.</desc>
    <defs>
        <polygon id="path-1" points="23.4934671 27.5603349 23.4934671 0.349768868 0.224885686 0.349768868 0.224885686 27.5603349"></polygon>
        <polygon id="path-3" points="0 45 234.627912 45 234.627912 0 0 0"></polygon>
    </defs>
    <g id="Logos" stroke="none" stroke-width="1" fill="none" fill-rule="evenodd">
        <g id="green-on-white">
            <g id="Page-1" transform="translate(31.000000, 31.000000)">
                <path d="M81.1712932,10.6120189 L74.7522137,27.6789057 L87.5903727,27.6789057 L81.1712932,10.6120189 Z M91.9763841,40.0768302 L89.3551859,33.2071132 L72.9874006,33.2071132 L70.3662024,40.0768302 L63.2519448,40.0768302 L77.2663638,4.27933019 L85.0762227,4.27933019 L99.0906417,40.0768302 L91.9763841,40.0768302 Z" id="Fill-1" fill="#31B67B"></path>
                <g id="Group-14">
                    <path d="M121.021714,32.2943774 L121.021714,21.9898019 C119.737559,20.0577736 117.010159,18.5014528 114.335226,18.5014528 C109.895479,18.5014528 107.060607,22.0976321 107.060607,27.1423019 C107.060607,32.1339057 109.895479,35.7292358 114.335226,35.7292358 C117.010159,35.7292358 119.737559,34.2264057 121.021714,32.2943774 Z M121.021714,40.0768302 L121.021714,36.534566 C119.042381,39.1106038 116.047149,40.7208396 112.730773,40.7208396 C106.097597,40.7208396 101.230081,35.6757453 101.230081,27.1423019 C101.230081,18.7697547 106.044285,13.5102736 112.730773,13.5102736 C115.940101,13.5102736 118.935333,15.0131038 121.021714,17.7500377 L121.021714,4.27933019 L126.638144,4.27933019 L126.638144,40.0768302 L121.021714,40.0768302 Z" id="Fill-2" fill="#31B67B"></path>
                    <polygon id="Fill-4" fill="#31B67B" points="169.890241 40.0766604 169.890241 24.4586887 151.329027 24.4586887 151.329027 40.0766604 145.070308 40.0766604 145.070308 4.27916038 151.329027 4.27916038 151.329027 18.9309057 169.890241 18.9309057 169.890241 4.27916038 176.14896 4.27916038 176.14896 40.0766604"></polygon>
                    <path d="M201.463049,27.088684 C201.463049,22.5267028 198.788538,18.50175 193.974757,18.50175 C189.213866,18.50175 186.538932,22.5267028 186.538932,27.088684 C186.538932,31.7041557 189.213866,35.7291085 193.974757,35.7291085 C198.788538,35.7291085 201.463049,31.7041557 201.463049,27.088684 M180.708829,27.088684 C180.708829,19.6819387 185.790442,13.5101462 193.974757,13.5101462 C202.265698,13.5101462 207.293998,19.6819387 207.293998,27.088684 C207.293998,34.5484953 202.265698,40.7207123 193.974757,40.7207123 C185.790442,40.7207123 180.708829,34.5484953 180.708829,27.088684" id="Fill-6" fill="#31B67B"></path>
                    <g id="Group-10" transform="translate(211.134445, 13.160377)">
                        <mask id="mask-2" fill="white">
                            <use xlink:href="#path-1"></use>
                        </mask>
                        <g id="Clip-9"></g>
                        <path d="M0.224885686,13.9283066 C0.224885686,6.09278774 5.73426767,0.349768868 13.5978622,0.349768868 C18.6261623,0.349768868 21.6747067,2.49660849 23.4936786,4.96566509 L19.8024223,8.40052358 C18.3583304,6.36066509 16.3789979,5.34137264 13.8652709,5.34137264 C9.15769211,5.34137264 6.05541205,8.88321226 6.05541205,13.9283066 C6.05541205,18.9734009 9.15769211,22.5687311 13.8652709,22.5687311 C16.3789979,22.5687311 18.3583304,21.4955236 19.8024223,19.5095802 L23.4936786,22.9444387 C21.6747067,25.4134953 18.6261623,27.5603349 13.5978622,27.5603349 C5.73426767,27.5603349 0.224885686,21.817316 0.224885686,13.9283066" id="Fill-8" fill="#31B67B" mask="url(#mask-2)"></path>
                    </g>
                    <mask id="mask-4" fill="white">
                        <use xlink:href="#path-3"></use>
                    </mask>
                    <g id="Clip-12"></g>
                    <polygon id="Fill-11" fill="#31B67B" mask="url(#mask-4)" points="33.8470941 11.0398585 44.8502028 11.0398585 44.8502028 0 33.8470941 0"></polygon>
                    <polygon id="Fill-13" fill="#31B67B" mask="url(#mask-4)" points="33.8471364 29.2258443 26.7248395 29.2258443 26.7248395 18.1859858 15.7217308 18.1859858 15.7217308 11.0399009 26.7248395 11.0399009 26.7248395 4.24528302e-05 4.23115121e-05 4.24528302e-05 4.23115121e-05 45.0000425 44.8502451 45.0000425 44.8502451 18.1859858 33.8471364 18.1859858"></polygon>
                </g>
            </g>
        </g>
    </g>
</svg>