<?xml version="1.0" encoding="UTF-8"?>
<svg width="400px" height="128px" viewBox="0 0 400 128" version="1.1" xmlns="http://www.w3.org/2000/svg" xmlns:xlink="http://www.w3.org/1999/xlink" style="background: #FFFFFF;">
    <!-- Generator: Sketch 47.1 (45422) - http://www.bohemiancoding.com/sketch -->
    <title>green on white</title>
    <desc>Created with Sketch.</desc>
    <defs>
        <polygon id="path-1" points="33.6754929 39.8093726 33.6754929 0.505221698 0.322350733 0.505221698 0.322350733 39.8093726"></polygon>
        <polygon id="path-3" points="0 65 336.315222 65 336.315222 0 0 0"></polygon>
    </defs>
    <g id="Logos" stroke="none" stroke-width="1" fill="none" fill-rule="evenodd">
        <g id="green-on-white">
            <g id="Page-1" transform="translate(32.000000, 35.000000)">
                <path d="M116.350784,14.3284717 L107.149687,38.9806415 L125.551881,38.9806415 L116.350784,14.3284717 Z M131.838781,56.8887547 L128.081561,46.9658302 L104.620007,46.9658302 L100.862786,56.8887547 L90.6652224,56.8887547 L110.753465,5.18125472 L121.948103,5.18125472 L142.036345,56.8887547 L131.838781,56.8887547 Z" id="Fill-1" fill="#31B67B"></path>
                <g id="Group-14">
                    <path d="M173.472304,46.647434 L173.472304,31.7630472 C171.6316,28.9723396 167.722149,26.7243208 163.887904,26.7243208 C157.523979,26.7243208 153.46048,31.9188019 153.46048,39.2055472 C153.46048,46.4156415 157.523979,51.6088962 163.887904,51.6088962 C167.722149,51.6088962 171.6316,49.4381415 173.472304,46.647434 Z M173.472304,57.8887547 L173.472304,52.7721509 C170.635133,56.4930943 166.341773,58.8189906 161.588085,58.8189906 C152.080103,58.8189906 145.103014,51.5316321 145.103014,39.2055472 C145.103014,27.1118679 152.003685,19.5148396 161.588085,19.5148396 C166.18833,19.5148396 170.48169,21.6855943 173.472304,25.6389434 L173.472304,6.18125472 L181.522885,6.18125472 L181.522885,57.8887547 L173.472304,57.8887547 Z" id="Fill-2" fill="#31B67B"></path>
                    <polygon id="Fill-4" fill="#31B67B" points="243.520362 57.8885094 243.520362 35.329217 216.914751 35.329217 216.914751 57.8885094 207.943515 57.8885094 207.943515 6.18100943 216.914751 6.18100943 216.914751 27.3446415 243.520362 27.3446415 243.520362 6.18100943 252.491598 6.18100943 252.491598 57.8885094"></polygon>
                    <path d="M288.776767,39.1280991 C288.776767,32.5385708 284.943129,26.72475 278.043064,26.72475 C271.218811,26.72475 267.384566,32.5385708 267.384566,39.1280991 C267.384566,45.7948915 271.218811,51.6087123 278.043064,51.6087123 C284.943129,51.6087123 288.776767,45.7948915 288.776767,39.1280991 M259.027707,39.1280991 C259.027707,28.429467 266.311681,19.5146557 278.043064,19.5146557 C289.927283,19.5146557 297.13484,28.429467 297.13484,39.1280991 C297.13484,49.9033821 289.927283,58.8188066 278.043064,58.8188066 C266.311681,58.8188066 259.027707,49.9033821 259.027707,39.1280991" id="Fill-6" fill="#31B67B"></path>
                    <g id="Group-10" transform="translate(302.639729, 19.009434)">
                        <mask id="mask-2" fill="white">
                            <use xlink:href="#path-1"></use>
                        </mask>
                        <g id="Clip-9"></g>
                        <path d="M0.322350733,20.1186651 C0.322350733,8.8006934 8.21948883,0.505221698 19.4911509,0.505221698 C26.6987071,0.505221698 31.0684851,3.60621226 33.6757961,7.17262736 L28.3847561,12.1340896 C26.3147974,9.18762736 23.4776257,7.71531604 19.8744541,7.71531604 C13.1266192,7.71531604 8.6798166,12.8313066 8.6798166,20.1186651 C8.6798166,27.4060236 13.1266192,32.5992783 19.8744541,32.5992783 C23.4776257,32.5992783 26.3147974,31.0490896 28.3847561,28.1805047 L33.6757961,33.141967 C31.0684851,36.7083821 26.6987071,39.8093726 19.4911509,39.8093726 C8.21948883,39.8093726 0.322350733,31.5139009 0.322350733,20.1186651" id="Fill-8" fill="#31B67B" mask="url(#mask-2)"></path>
                    </g>
                    <mask id="mask-4" fill="white">
                        <use xlink:href="#path-3"></use>
                    </mask>
                    <g id="Clip-12"></g>
                    <polygon id="Fill-11" fill="#31B67B" mask="url(#mask-4)" points="48.516363 15.9464623 64.2881989 15.9464623 64.2881989 0 48.516363 0"></polygon>
                    <polygon id="Fill-13" fill="#31B67B" mask="url(#mask-4)" points="48.5164236 42.2151085 38.3073363 42.2151085 38.3073363 26.2686462 22.5355003 26.2686462 22.5355003 15.9465236 38.3073363 15.9465236 38.3073363 6.13207547e-05 6.06492444e-05 6.13207547e-05 6.06492444e-05 65.0000613 64.2882596 65.0000613 64.2882596 26.2686462 48.5164236 26.2686462"></polygon>
                </g>
            </g>
        </g>
    </g>
</svg>