<?xml version="1.0" encoding="UTF-8"?>
<svg width="400px" height="128px" viewBox="0 0 400 128" version="1.1" xmlns="http://www.w3.org/2000/svg" xmlns:xlink="http://www.w3.org/1999/xlink">
    <!-- Generator: Sketch 47.1 (45422) - http://www.bohemiancoding.com/sketch -->
    <title>Monochrome</title>
    <desc>Created with Sketch.</desc>
    <defs>
        <polygon id="path-1" points="247.066859 52.8093726 247.066859 13.5052217 213.544327 13.5052217 213.544327 52.8093726"></polygon>
        <polygon id="path-3" points="0 65 338.023263 65 338.023263 0 0 0"></polygon>
    </defs>
    <g id="Logos" stroke="none" stroke-width="1" fill="none" fill-rule="evenodd">
        <g id="Monochrome">
            <g id="Page-1" transform="translate(32.000000, 32.000000)">
                <g id="Group-14">
                    <path d="M323.766883,19.5146557 C331.011044,19.5146557 335.403015,22.6156462 338.023568,26.1820613 L332.705656,31.1435236 C330.625185,28.1970613 327.773604,26.72475 324.152133,26.72475 C317.370028,26.72475 312.900642,31.8407406 312.900642,39.1280991 C312.900642,46.4154575 317.370028,51.6087123 324.152133,51.6087123 C327.773604,51.6087123 330.625185,50.0585236 332.705656,47.1899387 L338.023568,52.1514009 C335.403015,55.717816 331.011044,58.8188066 323.766883,58.8188066 C312.437976,58.8188066 304.500731,50.5233349 304.500731,39.1280991 C304.500731,27.8101274 312.437976,19.5146557 323.766883,19.5146557 Z" id="Fill-8" fill="#000000"></path>
                    <path d="M290.243376,39.1280991 C290.243376,32.5385708 286.390267,26.72475 279.455159,26.72475 C272.596248,26.72475 268.74253,32.5385708 268.74253,39.1280991 C268.74253,45.7948915 272.596248,51.6087123 279.455159,51.6087123 C286.390267,51.6087123 290.243376,45.7948915 290.243376,39.1280991 M260.343228,39.1280991 C260.343228,28.429467 267.664196,19.5146557 279.455159,19.5146557 C291.399735,19.5146557 298.643896,28.429467 298.643896,39.1280991 C298.643896,49.9033821 291.399735,58.8188066 279.455159,58.8188066 C267.664196,58.8188066 260.343228,49.9033821 260.343228,39.1280991" id="Fill-6" fill="#000000"></path>
                    <polygon id="Fill-4" fill="#000000" points="244.757127 57.8885094 244.757127 35.329217 218.016395 35.329217 218.016395 57.8885094 208.999596 57.8885094 208.999596 6.18100943 218.016395 6.18100943 218.016395 27.3446415 244.757127 27.3446415 244.757127 6.18100943 253.773925 6.18100943 253.773925 57.8885094"></polygon>
                    <path d="M174.353317,46.647434 L174.353317,31.7630472 C172.503264,28.9723396 168.573958,26.7243208 164.72024,26.7243208 C158.323995,26.7243208 154.239858,31.9188019 154.239858,39.2055472 C154.239858,46.4156415 158.323995,51.6088962 164.72024,51.6088962 C168.573958,51.6088962 172.503264,49.4381415 174.353317,46.647434 Z M174.353317,57.8887547 L174.353317,52.7721509 C171.501736,56.4930943 167.186571,58.8189906 162.408741,58.8189906 C152.852471,58.8189906 145.839947,51.5316321 145.839947,39.2055472 C145.839947,27.1118679 152.775665,19.5148396 162.408741,19.5148396 C167.032349,19.5148396 171.347514,21.6855943 174.353317,25.6389434 L174.353317,6.18125472 L182.444784,6.18125472 L182.444784,57.8887547 L174.353317,57.8887547 Z" id="Fill-2" fill="#000000"></path>
                    <g id="Group-10" transform="translate(90.956404, 6.009434)">
                        <path d="M25.9852897,9.31903774 L16.7374634,33.9712075 L35.2331161,33.9712075 L25.9852897,9.31903774 Z M41.551946,51.8793208 L37.7756436,41.9563962 L14.1949359,41.9563962 L10.4186335,51.8793208 L0.169279241,51.8793208 L20.3595439,0.171820755 L31.6110355,0.171820755 L51.8013002,51.8793208 L41.551946,51.8793208 Z" id="Fill-1" fill="#000000"></path>
                        <mask id="mask-2" fill="white">
                            <use xlink:href="#path-1"></use>
                        </mask>
                        <g id="Clip-9"></g>
                    </g>
                    <mask id="mask-4" fill="white">
                        <use xlink:href="#path-3"></use>
                    </mask>
                    <g id="Clip-12"></g>
                    <polygon id="Fill-11" fill="#000000" mask="url(#mask-4)" points="48.7627626 15.9464623 64.6146989 15.9464623 64.6146989 0 48.7627626 0"></polygon>
                    <polygon id="Fill-13" fill="#000000" mask="url(#mask-4)" points="48.7628236 42.2151085 38.5018875 42.2151085 38.5018875 26.2686462 22.6499512 26.2686462 22.6499512 15.9465236 38.5018875 15.9465236 38.5018875 6.13207547e-05 6.09572631e-05 6.13207547e-05 6.09572631e-05 65.0000613 64.6147598 65.0000613 64.6147598 26.2686462 48.7628236 26.2686462"></polygon>
                </g>
            </g>
        </g>
    </g>
</svg>