<svg id="Layer_1" data-name="Layer 1" xmlns="http://www.w3.org/2000/svg" viewBox="0 0 600 178"><defs><style>.cls-1{fill:#fff;}</style></defs><title>full-logo</title><path class="cls-1" d="M245.52,130.4l-6.19-16.18H200.64l-6.19,16.18H177.63l33.12-84.32h18.46l33.12,84.32H245.52ZM220,61l-15.17,40.2h30.34Z"/><path class="cls-1" d="M314.17,130.4v-8.34a24.73,24.73,0,0,1-19.6,9.86c-15.68,0-27.18-11.88-27.18-32,0-19.72,11.38-32.11,27.18-32.11a24.5,24.5,0,0,1,19.6,10V46.08h13.27V130.4H314.17Zm0-18.33V87.8a20.06,20.06,0,0,0-15.8-8.22c-10.49,0-17.19,8.47-17.19,20.35s6.7,20.23,17.19,20.23C304.69,120.16,311.13,116.62,314.17,112.07Z"/><path class="cls-1" d="M429.66,130.4V93.61H385.8V130.4H371V46.08H385.8V80.59h43.87V46.08h14.79V130.4H429.66Z"/><path class="cls-1" d="M455.23,99.81c0-17.45,12-32,31.35-32,19.6,0,31.48,14.54,31.48,32s-11.88,32.11-31.48,32.11C467.24,131.92,455.23,117.38,455.23,99.81Zm49.05,0c0-10.75-6.32-20.23-17.7-20.23S469,89.06,469,99.81s6.32,20.35,17.57,20.35S504.28,110.68,504.28,99.81Z"/><path class="cls-1" d="M527.67,99.81c0-18.46,13-32,31.61-32,11.88,0,19.09,5.06,23.39,10.87l-8.72,8.09a16.3,16.3,0,0,0-14-7.21c-11.13,0-18.46,8.34-18.46,20.23s7.33,20.35,18.46,20.35a16.6,16.6,0,0,0,14-7.21l8.72,8.09c-4.3,5.82-11.5,10.87-23.39,10.87C540.69,131.92,527.67,118.39,527.67,99.81Z"/><rect class="cls-1" x="108.14" y="36" width="26" height="26"/><polygon class="cls-1" points="108.14 104.84 91.3 104.84 91.3 78.84 65.3 78.84 65.3 62.01 91.3 62.01 91.3 36 28.14 36 28.14 142 134.14 142 134.14 78.84 108.14 78.84 108.14 104.84"/></svg>