<svg id="Layer_1" data-name="Layer 1" xmlns="http://www.w3.org/2000/svg" viewBox="0 0 600 178"><defs><style>.cls-1{fill:#fff}</style></defs><path class="cls-1" d="M245.52 130.4l-6.19-16.18h-38.69l-6.19 16.18h-16.82l33.12-84.32h18.46l33.12 84.32h-16.81zM220 61l-15.17 40.2h30.34zM314.17 130.4v-8.34a24.73 24.73 0 0 1-19.6 9.86c-15.68 0-27.18-11.88-27.18-32 0-19.72 11.38-32.11 27.18-32.11a24.5 24.5 0 0 1 19.6 10V46.08h13.27v84.32h-13.27zm0-18.33V87.8a20.06 20.06 0 0 0-15.8-8.22c-10.49 0-17.19 8.47-17.19 20.35s6.7 20.23 17.19 20.23c6.32 0 12.76-3.54 15.8-8.09zM429.66 130.4V93.61H385.8v36.79H371V46.08h14.8v34.51h43.87V46.08h14.79v84.32h-14.8zM455.23 99.81c0-17.45 12-32 31.35-32 19.6 0 31.48 14.54 31.48 32s-11.88 32.11-31.48 32.11c-19.34 0-31.35-14.54-31.35-32.11zm49.05 0c0-10.75-6.32-20.23-17.7-20.23S469 89.06 469 99.81s6.32 20.35 17.57 20.35 17.71-9.48 17.71-20.35zM527.67 99.81c0-18.46 13-32 31.61-32 11.88 0 19.09 5.06 23.39 10.87l-8.72 8.09a16.3 16.3 0 0 0-14-7.21c-11.13 0-18.46 8.34-18.46 20.23s7.33 20.35 18.46 20.35a16.6 16.6 0 0 0 14-7.21l8.72 8.09c-4.3 5.82-11.5 10.87-23.39 10.87-18.59.03-31.61-13.5-31.61-32.08zM108.14 36h26v26h-26z"/><path class="cls-1" d="M108.14 104.84H91.3v-26h-26V62.01h26V36H28.14v106h106V78.84h-26v26z"/></svg>