<svg width="429" height="82" xmlns="http://www.w3.org/2000/svg" xmlns:xlink="http://www.w3.org/1999/xlink"><defs><path id="a" d="M42.842 50.221V.637H.41v49.584z"/><path id="c" d="M0 82h427.857V0H0z"/></defs><g fill="none" fill-rule="evenodd"><path d="M148.02 19.337l-11.705 31.1h23.41l-11.705-31.1zm19.704 53.692l-4.78-12.518h-29.848l-4.78 12.518h-12.973L140.9 7.798h14.242l25.556 65.23h-12.973zM220.69 58.848V40.07c-2.342-3.52-7.316-6.356-12.194-6.356-8.096 0-13.265 6.553-13.265 15.745 0 9.096 5.17 15.648 13.265 15.648 4.878 0 9.852-2.739 12.194-6.26zm0 14.18v-6.454c-3.61 4.694-9.072 7.628-15.12 7.628-12.095 0-20.971-9.193-20.971-24.743 0-15.256 8.778-24.84 20.972-24.84 5.852 0 11.314 2.738 15.119 7.726V7.798h10.241v65.23H220.69zM309.804 73.029v-28.46h-33.847v28.46h-11.413V7.798h11.413v26.698h33.847V7.798h11.413v65.23zM367.379 49.362c0-8.313-4.877-15.648-13.656-15.648-8.681 0-13.56 7.335-13.56 15.648 0 8.41 4.879 15.744 13.56 15.744 8.779 0 13.656-7.334 13.656-15.744m-37.847 0c0-13.497 9.267-24.744 24.191-24.744 15.12 0 24.289 11.247 24.289 24.744 0 13.593-9.17 24.84-24.289 24.84-14.924 0-24.19-11.247-24.19-24.84" fill="#FEFEFE"/><g transform="translate(385.015 23.981)"><mask id="b" fill="#fff"><use xlink:href="#a"/></mask><path d="M.41 25.38C.41 11.102 10.457.637 24.796.637c9.17 0 14.729 3.912 18.046 8.412l-6.731 6.259c-2.634-3.717-6.243-5.575-10.827-5.575-8.584 0-14.242 6.454-14.242 15.647 0 9.194 5.658 15.745 14.242 15.745 4.584 0 8.193-1.955 10.827-5.574l6.731 6.259c-3.317 4.499-8.876 8.411-18.046 8.411C10.456 50.221.41 39.756.41 25.381" fill="#FEFEFE" mask="url(#b)"/></g><mask id="d" fill="#fff"><use xlink:href="#c"/></mask><path fill="#FEFEFE" mask="url(#d)" d="M61.722 20.117h20.065V0H61.722z"/><path fill="#FEFEFE" mask="url(#d)" d="M61.722 53.256H48.734V33.139H28.67V20.117h20.065V0H0v82h81.787V33.14H61.722z"/></g></svg>